<svg data-v-1084b650="" xmlns="http://www.w3.org/2000/svg" viewBox="0 0 300 300"><!----> <!----> <rect data-v-1084b650="" fill="#EEE9FD" x="0" y="0" width="300px" height="300px" class="logo-background-square"></rect> <!----> <g data-v-1084b650="" id="ce728607-2e75-b9dd-6f8e-92c2bbbce9ce" fill="#221057" transform="matrix(3.0999999999999996,0,0,3.0999999999999996,108.36263113617898,123.66291551589967)"><path d="M0.70 5.57L0.70 3.72L7.41 3.72L7.41 3.72Q7.41 4.16 7.28 4.50L7.28 4.50L7.28 4.50Q7.15 4.84 6.94 5.08L6.94 5.08L6.94 5.08Q6.73 5.32 6.46 5.45L6.46 5.45L6.46 5.45Q6.19 5.57 5.88 5.57L5.88 5.57L4.76 5.57L4.76 13.52L2.87 13.52L2.87 5.57L0.70 5.57ZM8.95 13.52L8.95 7.74L8.95 7.74Q8.97 7.32 9.12 7.04L9.12 7.04L9.12 7.04Q9.27 6.76 9.51 6.59L9.51 6.59L9.51 6.59Q9.74 6.43 10.06 6.35L10.06 6.35L10.06 6.35Q10.37 6.27 10.75 6.27L10.75 6.27L10.75 13.52L8.95 13.52ZM9.86 3.29L9.86 3.29L9.86 3.29Q10.33 3.29 10.67 3.64L10.67 3.64L10.67 3.64Q11.02 3.98 11.02 4.47L11.02 4.47L11.02 4.47Q11.02 4.96 10.68 5.31L10.68 5.31L10.68 5.31Q10.49 5.50 10.23 5.58L10.23 5.58L10.23 5.58Q9.97 5.66 9.71 5.73L9.71 5.73L9.71 5.73Q9.45 5.81 9.23 5.92L9.23 5.92L9.23 5.92Q9.02 6.02 8.93 6.26L8.93 6.26L8.93 6.26Q8.86 6.03 8.79 5.68L8.79 5.68L8.79 5.68Q8.71 5.33 8.69 4.96L8.69 4.96L8.69 4.96Q8.67 4.58 8.73 4.22L8.73 4.22L8.73 4.22Q8.79 3.86 9.03 3.63L9.03 3.63L9.03 3.63Q9.37 3.29 9.86 3.29ZM14.18 12.75L14.18 13.52L12.42 13.52L12.42 5.17L12.42 5.17Q12.42 4.59 12.89 4.17L12.89 4.17L12.89 4.17Q13.36 3.75 14.18 3.72L14.18 3.72L14.18 9.37L14.18 9.37Q14.18 9.84 14.27 10.33L14.27 10.33L14.27 10.33Q14.36 10.81 14.57 11.20L14.57 11.20L14.57 11.20Q14.78 11.59 15.15 11.84L15.15 11.84L15.15 11.84Q15.51 12.08 16.06 12.08L16.06 12.08L16.06 12.08Q16.70 12.08 17.13 11.77L17.13 11.77L17.13 11.77Q17.56 11.47 17.77 11.00L17.77 11.00L17.77 11.00Q17.98 10.54 17.97 10.00L17.97 10.00L17.97 10.00Q17.96 9.45 17.75 8.99L17.75 8.99L17.75 8.99Q17.53 8.53 17.10 8.22L17.10 8.22L17.10 8.22Q16.67 7.91 16.04 7.91L16.04 7.91L16.04 7.91Q15.67 7.91 15.24 8.03L15.24 8.03L15.24 8.03Q14.81 8.15 14.57 8.48L14.57 8.48L14.57 8.48Q14.45 8.26 14.44 7.90L14.44 7.90L14.44 7.90Q14.43 7.53 14.62 7.18L14.62 7.18L14.62 7.18Q14.80 6.83 15.19 6.57L15.19 6.57L15.19 6.57Q15.58 6.30 16.28 6.27L16.28 6.27L16.28 6.27Q16.95 6.26 17.58 6.52L17.58 6.52L17.58 6.52Q18.20 6.79 18.68 7.28L18.68 7.28L18.68 7.28Q19.17 7.77 19.45 8.46L19.45 8.46L19.45 8.46Q19.74 9.16 19.74 9.98L19.74 9.98L19.74 9.98Q19.74 10.84 19.47 11.52L19.47 11.52L19.47 11.52Q19.21 12.19 18.76 12.67L18.76 12.67L18.76 12.67Q18.31 13.15 17.74 13.41L17.74 13.41L17.74 13.41Q17.16 13.68 16.55 13.70L16.55 13.70L16.55 13.70Q15.93 13.72 15.32 13.50L15.32 13.50L15.32 13.50Q14.70 13.27 14.18 12.75L14.18 12.75ZM21.76 6.33L21.76 5.15L21.76 5.15Q21.76 4.76 21.90 4.49L21.90 4.49L21.90 4.49Q22.05 4.21 22.30 4.05L22.30 4.05L22.30 4.05Q22.54 3.88 22.86 3.80L22.86 3.80L22.86 3.80Q23.18 3.72 23.52 3.72L23.52 3.72L23.52 6.33L25.14 6.33L25.14 6.33Q25.14 6.61 25.09 6.87L25.09 6.87L25.09 6.87Q25.05 7.14 24.91 7.36L24.91 7.36L24.91 7.36Q24.77 7.57 24.53 7.71L24.53 7.71L24.53 7.71Q24.29 7.84 23.91 7.84L23.91 7.84L23.52 7.84L23.52 11.80L23.52 11.80Q23.52 12.03 23.69 12.12L23.69 12.12L23.69 12.12Q23.86 12.21 24.08 12.20L24.08 12.20L24.08 12.20Q24.30 12.19 24.53 12.10L24.53 12.10L24.53 12.10Q24.75 12.00 24.85 11.83L24.85 11.83L24.85 11.83Q25.03 12.29 24.87 12.65L24.87 12.65L24.87 12.65Q24.71 13.01 24.37 13.22L24.37 13.22L24.37 13.22Q24.02 13.44 23.57 13.50L23.57 13.50L23.57 13.50Q23.11 13.57 22.71 13.43L22.71 13.43L22.71 13.43Q22.32 13.30 22.04 12.96L22.04 12.96L22.04 12.96Q21.76 12.61 21.76 12.03L21.76 12.03L21.76 7.84L20.86 7.84L20.86 6.33L21.76 6.33ZM28.03 3.72L28.03 3.72L28.03 7.27L28.03 7.27Q28.14 7.03 28.36 6.85L28.36 6.85L28.36 6.85Q28.59 6.66 28.86 6.55L28.86 6.55L28.86 6.55Q29.13 6.43 29.42 6.36L29.42 6.36L29.42 6.36Q29.71 6.29 29.96 6.27L29.96 6.27L29.96 6.27Q30.48 6.24 30.98 6.41L30.98 6.41L30.98 6.41Q31.49 6.58 31.91 7.01L31.91 7.01L31.91 7.01Q32.52 7.66 32.52 8.86L32.52 8.86L32.52 13.52L30.77 13.52L30.77 13.52Q30.77 13.30 30.78 12.90L30.78 12.90L30.78 12.90Q30.79 12.50 30.79 12.03L30.79 12.03L30.79 12.03Q30.79 11.56 30.79 11.05L30.79 11.05L30.79 11.05Q30.79 10.54 30.77 10.09L30.77 10.09L30.77 10.09Q30.76 9.63 30.73 9.28L30.73 9.28L30.73 9.28Q30.70 8.93 30.66 8.76L30.66 8.76L30.66 8.76Q30.55 8.34 30.25 8.12L30.25 8.12L30.25 8.12Q29.96 7.90 29.60 7.90L29.60 7.90L29.60 7.90Q29.12 7.90 28.86 8.15L28.86 8.15L28.86 8.15Q28.60 8.40 28.60 8.81L28.60 8.81L28.60 8.81Q28.45 8.76 28.27 8.60L28.27 8.60L28.27 8.60Q28.10 8.43 28.03 8.23L28.03 8.23L28.03 13.52L26.26 13.52L26.26 5.15L26.26 5.15Q26.26 4.48 26.74 4.10L26.74 4.10L26.74 4.10Q27.22 3.71 28.03 3.72ZM34.20 13.52L34.20 7.74L34.20 7.74Q34.23 7.32 34.38 7.04L34.38 7.04L34.38 7.04Q34.52 6.76 34.76 6.59L34.76 6.59L34.76 6.59Q35 6.43 35.31 6.35L35.31 6.35L35.31 6.35Q35.63 6.27 36.01 6.27L36.01 6.27L36.01 13.52L34.20 13.52ZM35.11 3.29L35.11 3.29L35.11 3.29Q35.59 3.29 35.92 3.64L35.92 3.64L35.92 3.64Q36.27 3.98 36.27 4.47L36.27 4.47L36.27 4.47Q36.27 4.96 35.94 5.31L35.94 5.31L35.94 5.31Q35.74 5.50 35.48 5.58L35.48 5.58L35.48 5.58Q35.22 5.66 34.97 5.73L34.97 5.73L34.97 5.73Q34.71 5.81 34.49 5.92L34.49 5.92L34.49 5.92Q34.27 6.02 34.19 6.26L34.19 6.26L34.19 6.26Q34.12 6.03 34.04 5.68L34.04 5.68L34.04 5.68Q33.96 5.33 33.94 4.96L33.94 4.96L33.94 4.96Q33.92 4.58 33.98 4.22L33.98 4.22L33.98 4.22Q34.05 3.86 34.29 3.63L34.29 3.63L34.29 3.63Q34.62 3.29 35.11 3.29ZM39.48 6.27L39.48 7.11L39.48 7.11Q39.59 6.86 39.82 6.68L39.82 6.68L39.82 6.68Q40.05 6.50 40.33 6.37L40.33 6.37L40.33 6.37Q40.61 6.24 40.91 6.17L40.91 6.17L40.91 6.17Q41.20 6.10 41.45 6.09L41.45 6.09L41.45 6.09Q41.99 6.06 42.50 6.24L42.50 6.24L42.50 6.24Q43.02 6.41 43.46 6.85L43.46 6.85L43.46 6.85Q44.09 7.50 44.09 8.74L44.09 8.74L44.09 13.52L42.29 13.52L42.29 13.52Q42.29 13.29 42.30 12.88L42.30 12.88L42.30 12.88Q42.31 12.47 42.31 11.99L42.31 11.99L42.31 11.99Q42.31 11.51 42.31 10.99L42.31 10.99L42.31 10.99Q42.31 10.47 42.29 10.01L42.29 10.01L42.29 10.01Q42.28 9.55 42.25 9.18L42.25 9.18L42.25 9.18Q42.22 8.82 42.18 8.65L42.18 8.65L42.18 8.65Q42.07 8.20 41.76 7.98L41.76 7.98L41.76 7.98Q41.44 7.76 41.08 7.76L41.08 7.76L41.08 7.76Q40.60 7.76 40.33 8.02L40.33 8.02L40.33 8.02Q40.07 8.27 40.07 8.69L40.07 8.69L40.07 8.69Q39.90 8.64 39.73 8.46L39.73 8.46L39.73 8.46Q39.56 8.29 39.48 8.09L39.48 8.09L39.48 8.47L39.48 13.52L37.67 13.52L37.67 6.27L39.48 6.27ZM47.26 3.72L47.26 9.37L48.79 7.67L48.79 7.67Q49.25 7.15 49.70 6.83L49.70 6.83L49.70 6.83Q50.15 6.51 50.78 6.47L50.78 6.47L50.78 6.47Q51.09 6.45 51.37 6.52L51.37 6.52L51.37 6.52Q51.65 6.58 51.83 6.74L51.83 6.74L51.83 6.74Q52.01 6.90 52.07 7.15L52.07 7.15L52.07 7.15Q52.12 7.39 52.00 7.74L52.00 7.74L52.00 7.74Q51.94 7.64 51.79 7.61L51.79 7.61L51.79 7.61Q51.65 7.57 51.44 7.62L51.44 7.62L51.44 7.62Q51.24 7.66 51.00 7.79L51.00 7.79L51.00 7.79Q50.76 7.92 50.54 8.19L50.54 8.19L49.06 9.83L52.47 13.52L50.26 13.52L47.26 10.26L47.26 13.52L45.49 13.52L45.49 5.15L45.49 5.15Q45.49 4.48 45.97 4.10L45.97 4.10L45.97 4.10Q46.45 3.71 47.26 3.72L47.26 3.72Z"></path></g> <linearGradient data-v-1084b650="" gradientTransform="rotate(25)" id="5f8a75e4-c16e-8c7e-d096-6c962bf52ce1" x1="0%" y1="0%" x2="100%" y2="0%"><stop data-v-1084b650="" offset="0%" style="stop-color: rgb(146, 13, 233); stop-opacity: 1;"></stop> <stop data-v-1084b650="" offset="100%" style="stop-color: rgb(21, 54, 241); stop-opacity: 1;"></stop></linearGradient> <g data-v-1084b650="" id="4938855e-1115-8154-e634-cf4d88039c75" fill="url(#5f8a75e4-c16e-8c7e-d096-6c962bf52ce1)" stroke="none" transform="matrix(0.193207781541136,0,0,0.193207781541136,39.17496312166284,121.01842961385942)"><svg xmlns="http://www.w3.org/2000/svg" xmlns:xlink="http://www.w3.org/1999/xlink" version="1.0" x="0px" y="0px" viewBox="0 0 50 50" enable-background="new 0 0 50 50" xml:space="preserve"><g><g><polygon points="10.821,24.951 21,32.193 21,39.035 1.118,24.891 21,11.118 21,17.9   "></polygon></g><g><polygon fill="#000000" points="49.039,25.277 35.815,16.063 34.219,21.712 39.475,25.338 31.411,30.97 29,38.79 29,39.424   "></polygon></g><rect x="25.577" y="3.983" transform="matrix(0.9606 0.278 -0.278 0.9606 8.0575 -6.8179)" fill="#000000" width="4.981" height="42.035"></rect></g></svg></g></svg>